# xmcd
#
# Track frame offsets: 
#        150
#        22563
#        39663
#        63363
#        88638
#        111888
#        134988
#        166113
#        189363
#        222663
#
# Disc length: 3104 seconds
#
# Revision: 5
# Processed by: cddbd v1.5.2PL0 Copyright (c) Steve Scherf et al.
# Submitted via: ExactAudioCopy v1.3
#
DISCID=870c1e0a
DTITLE=Various Artist - Kya Yehi Pyaar Hai (Tips-TCCD-7191)
DYEAR=2001
DGENRE=Hindi Film OST
TTITLE0=Babul Supriyo and Alka Yagnik - Meri Tarah Tum Bhi
TTITLE1=Kay Kay and Sunidhi Chauhan - Dil Pe Chaane Laga
TTITLE2=Sonu Nigam - O Mahive
TTITLE3=Sonu Nigam and Alka Yagnik  - Pehli Pehli Baar Hai
TTITLE4=Kumar Sanu - Dilki Nazar Mein
TTITLE5=Sonu Nigam - Aashiq Hoon
TTITLE6=Kumar Sanu, Sonu Nigam and Alka Yagnik - Tujhe Dekhkar Jeeta
TTITLE7=Alka Yagnik - Dilki Nazar Mein
TTITLE8=Iqbal Afzal and Sabri Bros - Chahton Kee Duniya (Qawali)
TTITLE9=Kumar Sanu - Sochoon Tumhein
EXTD=YEAR: 2001
EXTT0=
EXTT1=
EXTT2=
EXTT3=
EXTT4=
EXTT5=
EXTT6=
EXTT7=
EXTT8=
EXTT9=
PLAYORDER=
